<svg xmlns="http://www.w3.org/2000/svg" viewBox="0 0 56.8 362.61"><defs><style>.cls-1{fill:#e6e6e6;}</style></defs><g id="Layer_2" data-name="Layer 2"><g id="Layer_1-2" data-name="Layer 1"><path class="cls-1" d="M38.18,350.09l16.58,5.48v7L2,344.69v-8.21l52.73-18v7.27l-16.58,5.63ZM32.86,332.8,17.68,338c-3.44,1.17-6.57,1.95-9.62,2.73v.16c3.13.78,6.33,1.64,9.54,2.66l15.26,5.16Z"/><path class="cls-1" d="M49.05,307.3v-30h5.71v39H50.69L28.55,297.91,6.65,315.2H2V279.76H7.67v26.68H8l20.34-16.12,20.5,17Z"/><path class="cls-1" d="M56.8,245.34v6.57H52.73c-.94,10.72-8.29,21.9-24,21.9-16.19,0-24-12-24.8-22.06H0v-6.57H3.91c.86-11,8.84-21.9,24.41-21.9s23.47,10.95,24.41,22.06Zm-9-.08c-.7-7.51-7.28-14.94-19.32-14.94-12.52,0-18.94,7.51-19.64,14.94Zm-39,6.57c.47,6.81,7,14.94,19.71,14.94,11.58,0,18.31-7.27,19.25-14.94Z"/><path class="cls-1" d="M38.18,209.9l16.58,5.47v7L2,204.5v-8.21l52.73-18v7.28L38.18,191.2Zm-5.32-17.29-15.18,5.16c-3.44,1.18-6.57,2-9.62,2.74v.16c3.13.78,6.33,1.64,9.54,2.66l15.26,5.16Z"/><path class="cls-1" d="M54.76,139.25l-36.3,12.21c-3.67,1.17-6.8,1.95-10,2.74v.23c3.28.78,6.49,1.57,9.93,2.58l36.38,12v7.12L2,158.19v-8.14L54.76,131.9Z"/><path class="cls-1" d="M30,98.73v20.5h19V96.38h5.71V126H2V97.56H7.75v21.67H24.41V98.73Z"/><path class="cls-1" d="M2,82.3H54.76v6.81H2Z"/><path class="cls-1" d="M30,44.67v20.5h19V42.32h5.71V72H2V43.5H7.75V65.17H24.41V44.67Z"/><path class="cls-1" d="M49.05,30V0h5.71V39H50.69L28.55,20.65,6.65,37.94H2V2.5H7.67V29.18H8L28.32,13.06l20.5,17Z"/></g></g></svg>