<svg xmlns="http://www.w3.org/2000/svg" viewBox="0 0 54.37 287.58"><defs><style>.cls-1{fill:#e6e6e6;}</style></defs><g id="Layer_2" data-name="Layer 2"><g id="Layer_1-2" data-name="Layer 1"><path class="cls-1" d="M45.3,285.86a24.19,24.19,0,0,0,3.44-12.2c0-7-3.68-11-9-11-4.93,0-7.74,2.81-10.48,9.93-3.05,8.61-7.51,13.93-14.94,13.93C6.1,286.49,0,279.68,0,269.43a23.9,23.9,0,0,1,2.58-11.65l5.56,1.87a21,21,0,0,0-2.51,10c0,7.19,4.31,9.93,7.9,9.93,4.93,0,7.36-3.21,10.17-10.48,3.45-8.92,7.75-13.46,15.49-13.46,8.14,0,15.18,6,15.18,18.47,0,5.08-1.49,10.63-3.36,13.45Z"/><path class="cls-1" d="M28.87,220.62v20.49h19V218.27h5.71v29.65H.86V219.44H6.57v21.67H23.23V220.62Z"/><path class="cls-1" d="M1.56,211A71.25,71.25,0,0,1,.47,197.93c0-7.28,1.33-12,4.3-15.26a13.14,13.14,0,0,1,10-4.14c7,0,11.57,4.38,13.45,9.93h.24c1.4-4.07,5.16-6.49,10.64-7.74,7.35-1.72,12.43-3,14.47-4.07v7c-1.49.86-6,2-12.6,3.52-7.27,1.56-10,4.38-10.24,10.56v6.42H53.59V211Zm24-6.8v-7c0-7.27-4-11.89-10-11.89-6.81,0-9.78,4.93-9.86,12.13a27.65,27.65,0,0,0,.63,6.73Z"/><path class="cls-1" d="M53.59,157.64.86,174.85V167.5l26-8.22c7.12-2.27,13.54-4.22,19.72-5.63v-.16c-6.1-1.48-12.75-3.67-19.64-6l-26-8.92v-7.28l52.73,18.86Z"/><path class="cls-1" d="M.86,120.32H53.59v6.81H.86Z"/><path class="cls-1" d="M51.87,73.15c1.25,2.5,2.5,7.51,2.5,13.92,0,14.87-9.39,26.05-26.68,26.05C11.19,113.12,0,101.94,0,85.59,0,79,1.41,74.87,2.35,73.07L7.9,74.71A24.82,24.82,0,0,0,5.71,85.35c0,12.36,7.9,20.58,21.75,20.58,12.91,0,21.2-7.44,21.2-20.27a27.28,27.28,0,0,0-2.19-11.11Z"/><path class="cls-1" d="M28.87,38.88v20.5h19V36.53h5.71V66.18H.86V37.71H6.57V59.38H23.23V38.88Z"/><path class="cls-1" d="M45.3,30.2A24.19,24.19,0,0,0,48.74,18c0-7-3.68-11-9-11C34.81,7,32,9.78,29.26,16.9c-3.05,8.6-7.51,13.92-14.94,13.92C6.1,30.82,0,24,0,13.77A24,24,0,0,1,2.58,2.11L8.14,4A21,21,0,0,0,5.63,14c0,7.2,4.31,9.94,7.9,9.94,4.93,0,7.36-3.21,10.17-10.48C27.15,4.54,31.45,0,39.19,0c8.14,0,15.18,6,15.18,18.46,0,5.09-1.49,10.64-3.36,13.46Z"/></g></g></svg>