<svg xmlns="http://www.w3.org/2000/svg" viewBox="0 0 306.75 90.96"><defs><style>.cls-1{fill:gray;}</style></defs><title>Asset 18</title><g id="Layer_2" data-name="Layer 2"><g id="Layer_1-2" data-name="Layer 1"><path class="cls-1" d="M36.14,35.62A3.13,3.13,0,0,1,35,38a3.65,3.65,0,0,1-2.48,1c-1,0-1.85-.83-2.47-2.48q-1.56-4.12-1.86-4.65a5.12,5.12,0,0,0-4.65-2.48,8.32,8.32,0,0,0-6.66,3.36,11.44,11.44,0,0,0-2.73,7.38c0,4,1.82,6.23,5.47,6.72l5.26-.83c2.14,0,3.2.76,3.2,2.27l-.2,1.34c-.28.9-1.3,1.34-3.08,1.34l-6.37-.92Q10.53,51.52,9,60.45a11,11,0,0,0,2.27,7.19A8.19,8.19,0,0,0,18,70.73a11.52,11.52,0,0,0,7.61-3,28.76,28.76,0,0,0,5.24-6.22l2.26,1.34q-6,11.25-17.76,11.25-6.49,0-10.63-2.79A10.59,10.59,0,0,1,0,62Q0,52,13.94,48.11q-8.16-2.37-8.16-9.49,0-5.79,5.78-9.3a21.26,21.26,0,0,1,11-2.89,18.14,18.14,0,0,1,8.78,2.07C34.55,30.22,36.14,32.59,36.14,35.62Z"/><path class="cls-1" d="M85.08,16.21c0,1.31-.9,2.37-2.69,3.2a10,10,0,0,1-4.33,1,40.18,40.18,0,0,1-13.22-2.37,13.53,13.53,0,0,0-6.61,4.59A11.55,11.55,0,0,0,55.55,30q0,5.18,5,7.85a35.55,35.55,0,0,1,10.12-2.06q9.19,0,9.19,4.44a3.51,3.51,0,0,1-2.27,3.2,7.77,7.77,0,0,1-4,1,36.18,36.18,0,0,1-14.86-2.89Q46.56,47.39,46.57,57A7.08,7.08,0,0,0,54,64.43a116.57,116.57,0,0,0,13.32.62,9.67,9.67,0,0,1,6.81,2.37,8.41,8.41,0,0,1,2.59,6.51q0,7.74-6.82,12.49a24.64,24.64,0,0,1-14.15,4.13A20.22,20.22,0,0,1,51,90.14c-2-.56-3-1.62-3-3.2a2.31,2.31,0,0,1,1.19-1.86,4.06,4.06,0,0,1,2.32-.83,34.55,34.55,0,0,1,6,1.34,14,14,0,0,0,3.41.62,11.72,11.72,0,0,0,6.92-2.37q3.7-2.58,3.71-6,0-4.95-6.4-4.85H60.71c-5.85.13-10.29-.41-13.32-1.65q-6.6-2.68-6.6-10.31,0-13.92,14.76-21.14-4.65-3.91-4.65-9,0-3.91,3.41-8.25A28.58,28.58,0,0,1,61,16.6q-8.57-3.92-8.57-9.38c0-2.27,1.28-4,3.82-5.16A15.88,15.88,0,0,1,63,.72a40.18,40.18,0,0,1,6.41.83l-.21,2.37-2.89-.2a9.63,9.63,0,0,0-5.06,1q-2.9,1.33-2.89,3.72,0,3.91,5.68,6.5,7.42-3.2,12.49-3.2Q85.07,11.77,85.08,16.21Z"/><path class="cls-1" d="M122.87,35.62A3.13,3.13,0,0,1,121.73,38a3.65,3.65,0,0,1-2.48,1c-1,0-1.86-.83-2.48-2.48q-1.55-4.12-1.85-4.65a5.13,5.13,0,0,0-4.65-2.48,8.32,8.32,0,0,0-6.66,3.36,11.44,11.44,0,0,0-2.73,7.38c0,4,1.82,6.23,5.47,6.72l5.26-.83c2.14,0,3.2.76,3.2,2.27l-.2,1.34c-.27.9-1.3,1.34-3.08,1.34l-6.37-.92q-7.91,1.44-9.45,10.37A11,11,0,0,0,98,67.64a8.22,8.22,0,0,0,6.79,3.09,11.52,11.52,0,0,0,7.61-3,28.76,28.76,0,0,0,5.24-6.22l2.26,1.34q-6,11.25-17.76,11.25-6.49,0-10.63-2.79A10.59,10.59,0,0,1,86.73,62q0-9.91,13.94-13.84-8.16-2.37-8.16-9.49,0-5.79,5.78-9.3a21.26,21.26,0,0,1,11-2.89,18.14,18.14,0,0,1,8.78,2.07C121.28,30.22,122.87,32.59,122.87,35.62Zm5.57-28.5a3.37,3.37,0,0,1-1,2.48,24.38,24.38,0,0,1-2.27,1.65l-14.77,9.92h-3.51L121.22,6a5.43,5.43,0,0,1,3.92-2.17Q128.44,3.82,128.44,7.12Z"/><path class="cls-1" d="M168,61.33Q164.48,74,158.18,74c-3.17,0-5.34-1.75-6.51-5.27a29.37,29.37,0,0,1-1-9.39L151,40.58,130,73h-9.1L150,27.36q2-3.09,1.95-9.19,0-9.5-5.16-9.5-3.82,0-6.92,6.2l-2.78-1.14a39.89,39.89,0,0,1,4-8.67Q144.51,0,148.61,0a5.8,5.8,0,0,1,4.68,2.37,8.29,8.29,0,0,1,1.9,5.27v12.8l-.83,34.8q-.21,10.84,5.37,10.84c1.58,0,3-.93,4.33-2.79.48-.69,1.1-1.68,1.86-3Z"/><path class="cls-1" d="M191.22,62.05q-8,12-15.8,12-4.75,0-4.75-5.78,0-2,1.76-8.16l9.29-32.52h8.16l-10,33.75a16.06,16.06,0,0,0-.67,4c0,1.86.65,2.79,2,2.79q3.72,0,8.57-7.74Z"/><path class="cls-1" d="M240.36,16.21c0,1.31-.89,2.37-2.68,3.2a10,10,0,0,1-4.34,1,40.07,40.07,0,0,1-13.21-2.37,13.53,13.53,0,0,0-6.61,4.59A11.56,11.56,0,0,0,210.83,30q0,5.18,5,7.85a35.49,35.49,0,0,1,10.12-2.06q9.18,0,9.19,4.44a3.51,3.51,0,0,1-2.27,3.2,7.8,7.8,0,0,1-4,1,36.23,36.23,0,0,1-14.87-2.89Q201.86,47.39,201.85,57a7.1,7.1,0,0,0,7.44,7.44,116.5,116.5,0,0,0,13.31.62,9.68,9.68,0,0,1,6.82,2.37A8.4,8.4,0,0,1,232,73.93q0,7.74-6.81,12.49A24.66,24.66,0,0,1,211,90.55a20.32,20.32,0,0,1-4.75-.41c-2-.56-3-1.62-3-3.2a2.3,2.3,0,0,1,1.18-1.86,4.12,4.12,0,0,1,2.33-.83,34.75,34.75,0,0,1,6,1.34,13.9,13.9,0,0,0,3.4.62,11.69,11.69,0,0,0,6.92-2.37q3.72-2.58,3.72-6c0-3.3-2.14-4.92-6.4-4.85H216c-5.85.13-10.29-.41-13.32-1.65q-6.62-2.68-6.61-10.31,0-13.92,14.76-21.14-4.64-3.91-4.64-9c0-2.61,1.13-5.36,3.41-8.25a28.38,28.38,0,0,1,6.71-6.08q-8.58-3.92-8.57-9.38,0-3.4,3.82-5.16A15.82,15.82,0,0,1,218.27.72a40.09,40.09,0,0,1,6.4.83l-.21,2.37-2.89-.2a9.65,9.65,0,0,0-5.06,1c-1.92.89-2.89,2.13-2.89,3.72q0,3.91,5.68,6.5,7.44-3.2,12.49-3.2Q240.37,11.77,240.36,16.21Z"/><path class="cls-1" d="M262.25,62.05q-8,12-15.8,12-4.74,0-4.74-5.78a39.07,39.07,0,0,1,1.75-8.16l9.29-32.52h8.17L251,61.32a16.16,16.16,0,0,0-.68,4c0,1.86.66,2.79,2,2.79q3.7,0,8.57-7.74Z"/><path class="cls-1" d="M306.75,25.5a8.9,8.9,0,0,1-4.44,8.16q-3.3,2-10,2.68l-10.74.83q-9.49,3.09-11.15,16.11,0,7.74,7,10.32l12.9,2.69q7,1.65,7,7.33,0,7.74-7,12.8A24.33,24.33,0,0,1,275.88,91q-8.06,0-8.05-3.3,0-2.89,3.3-2.89a14.89,14.89,0,0,1,3.82.72,39.07,39.07,0,0,0,6.92,1.65,12.46,12.46,0,0,0,6.86-3,9.32,9.32,0,0,0,3.46-6.2c0-3.09-2.2-4.82-6.6-5.16q-10.33-.83-12.4-1.65-6.6-2.69-6.6-12.7a35.69,35.69,0,0,1,6.5-20.75q7.55-10.84,18.28-10.43l7.33.31,3.2-.11a3.77,3.77,0,0,0,1.75-.62,6.94,6.94,0,0,0,1.14-1.54Z"/></g></g></svg>