<svg xmlns="http://www.w3.org/2000/svg" viewBox="0 0 54.45 241.66"><defs><style>.cls-1{fill:#e6e6e6;}</style></defs><g id="Layer_2" data-name="Layer 2"><g id="Layer_1-2" data-name="Layer 1"><path class="cls-1" d="M30.43,195.81c-7.35.4-16.19.86-22.76.79v.23c6.18,1.8,12.75,4,20,6.65l25.59,9.31V218l-25.12,8.53c-7.43,2.5-14.24,4.62-20.49,6.1v.16c6.57.16,15.41.55,23.31,1l22.61,1.4v6.5L.86,238V229.3l25.5-9c6.5-2.19,12.29-4,17.76-5.32v-.23c-5.32-1.33-11.11-3.21-17.76-5.56L.86,199.8v-8.68l52.73-3.29v6.65Z"/><path class="cls-1" d="M28.87,151.61v20.5h19V149.27h5.71v29.65H.86V150.44H6.57v21.67H23.23v-20.5Z"/><path class="cls-1" d="M53.59,142H.86v-7.43l26.68-16.9a148.66,148.66,0,0,1,17.13-9.46l-.08-.16c-7,.62-13.45.78-21.67.78H.86v-6.41H53.59v6.88L26.83,126a166.2,166.2,0,0,1-17.6,9.86l.08.23c6.65-.39,13-.54,21.75-.54H53.59Z"/><path class="cls-1" d="M26.68,47c18.15,0,27.77,11,27.77,24.48,0,13.93-10.8,23.71-26.76,23.71C11,95.21,0,84.8,0,70.72,0,56.33,11,47,26.68,47Zm.86,40.91c11.26,0,21.35-6.1,21.35-16.82S39,54.21,27,54.21C16.51,54.21,5.55,59.69,5.55,71S16,87.93,27.54,87.93Z"/><path class="cls-1" d="M.39,43.65C.63,40,3.29,34.42,7.51,30.82a34.66,34.66,0,0,1,19.32-8.13v-.32A37.5,37.5,0,0,1,7.67,13.22C3.76,9.54.94,4.69.39,1.17L6,0c2.19,5.79,9.7,14.47,23.31,18.07a44,44,0,0,0,10.79,1.49H53.59v6.8H40a49.56,49.56,0,0,0-10.64,1.1C15.18,30.59,7.51,37.94,6,44.9Z"/></g></g></svg>