<svg xmlns="http://www.w3.org/2000/svg" viewBox="0 0 53.59 188.38"><defs><style>.cls-1{fill:#e6e6e6;}</style></defs><g id="Layer_2" data-name="Layer 2"><g id="Layer_1-2" data-name="Layer 1"><path class="cls-1" d="M29.57,142.54c-7.35.39-16.19.86-22.76.78v.23c6.18,1.8,12.75,4,20,6.66l25.58,9.3v5.17L27.3,173.21c-7.43,2.5-14.24,4.61-20.49,6.1v.15c6.57.16,15.41.55,23.31,1l22.61,1.41v6.49L0,184.7V176l25.5-9c6.5-2.19,12.29-4,17.76-5.31v-.24c-5.32-1.33-11.11-3.21-17.76-5.55L0,146.53v-8.69l52.73-3.28v6.65Z"/><path class="cls-1" d="M28,98.34v20.49H47V96h5.71v29.65H0V97.16H5.71v21.67H22.37V98.34Z"/><path class="cls-1" d="M52.73,88.71H0V81.28l26.68-16.9a148.66,148.66,0,0,1,17.13-9.46l-.08-.16c-7,.63-13.46.78-21.67.78H0V49.13H52.73V56L26,72.76a168.87,168.87,0,0,1-17.6,9.85l.08.24c6.65-.39,13-.55,21.75-.55H52.73Z"/><path class="cls-1" d="M0,32H31.21C43,32,48,26.76,48,19.71c0-7.82-5.16-12.83-16.82-12.83H0V0H30.74c16.2,0,22.85,8.53,22.85,20,0,10.8-6.18,18.93-22.53,18.93H0Z"/></g></g></svg>